<svg width="29" height="24" viewBox="0 0 29 24" fill="none" xmlns="http://www.w3.org/2000/svg">
<path d="M14.5 0C10.3989 0 7.07434 2.80309 7.07434 6.26087H5.52861C3.66773 6.26087 2.09429 7.42235 1.84835 8.97757L0.0331848 20.4558C-0.263586 22.3325 1.46797 24 3.71345 24H25.2866C27.532 24 29.2636 22.3325 28.9668 20.4558L27.1517 8.97757C26.9057 7.42235 25.3323 6.26087 23.4714 6.26087H21.9257C21.9257 2.80309 18.6011 0 14.5 0ZM19.4504 6.26087H9.54956C9.54956 3.95568 11.7659 2.08696 14.5 2.08696C17.2341 2.08696 19.4504 3.95568 19.4504 6.26087ZM5.52861 8.34783H23.4714C24.0917 8.34783 24.6162 8.73499 24.6981 9.25339L26.5133 20.7317C26.6122 21.3572 26.035 21.913 25.2866 21.913H3.71345C2.96495 21.913 2.38777 21.3572 2.48669 20.7317L4.30185 9.25339C4.38383 8.73499 4.90831 8.34783 5.52861 8.34783Z" fill="white"/>
</svg>
