<svg width="22" height="22" viewBox="0 0 22 22" fill="none" xmlns="http://www.w3.org/2000/svg">
<path d="M10.9945 0C4.917 0 0 4.9225 0 11C0 17.0775 4.917 22 10.9945 22C17.072 22 22 17.0775 22 11C22 4.9225 17.072 0 10.9945 0ZM18.612 6.6H15.367C15.0095 5.225 14.509 3.905 13.849 2.684C15.873 3.377 17.556 4.7795 18.612 6.6V6.6ZM11 2.2385C11.9185 3.5585 12.6335 5.027 13.101 6.6H8.899C9.3665 5.027 10.0815 3.5585 11 2.2385ZM2.486 13.2C2.3045 12.496 2.2 11.759 2.2 11C2.2 10.241 2.3045 9.504 2.486 8.8H6.1985C6.1105 9.5205 6.05 10.252 6.05 11C6.05 11.748 6.1105 12.4795 6.204 13.2H2.486ZM3.3825 15.4H6.6275C6.985 16.775 7.4855 18.095 8.1455 19.3215C6.1215 18.6285 4.4385 17.2205 3.3825 15.4V15.4ZM6.6275 6.6H3.3825C4.4385 4.7795 6.1215 3.3715 8.1455 2.6785C7.4855 3.905 6.985 5.225 6.6275 6.6ZM11 19.7615C10.087 18.4415 9.372 16.973 8.899 15.4H13.101C12.628 16.973 11.913 18.4415 11 19.7615ZM13.574 13.2H8.426C8.3215 12.4795 8.25 11.748 8.25 11C8.25 10.252 8.3215 9.5205 8.426 8.8H13.574C13.6785 9.5205 13.75 10.252 13.75 11C13.75 11.748 13.6785 12.4795 13.574 13.2ZM13.8545 19.316C14.5145 18.0895 15.015 16.775 15.3725 15.4H18.6175C17.556 17.2205 15.873 18.623 13.8545 19.316ZM15.796 13.2C15.884 12.4795 15.95 11.748 15.95 11C15.95 10.252 15.8895 9.5205 15.796 8.8H19.5085C19.69 9.504 19.8 10.241 19.8 11C19.8 11.759 19.6955 12.496 19.5085 13.2H15.796Z" fill="url(#paint0_linear_138562_5)"/>
<defs>
<linearGradient id="paint0_linear_138562_5" x1="11" y1="0" x2="11" y2="22" gradientUnits="userSpaceOnUse">
<stop stop-color="#D8005D"/>
<stop offset="1" stop-color="white"/>
</linearGradient>
</defs>
</svg>
