<svg width="24" height="19" viewBox="0 0 24 19" fill="none" xmlns="http://www.w3.org/2000/svg">
<path d="M17.25 0C15.22 0 13.2716 0.81 12 2.085C10.7283 0.81 8.77998 0 6.74998 0C3.15081 0 0.333313 2.415 0.333313 5.5C0.333313 9.275 4.29998 12.36 10.3083 17.035L12 18.35L13.6916 17.035C19.7 12.36 23.6666 9.275 23.6666 5.5C23.6666 2.415 20.8491 0 17.25 0ZM12.1225 15.555L12 15.65L11.8775 15.555C6.32998 11.24 2.66665 8.39 2.66665 5.5C2.66665 3.505 4.42248 2 6.74998 2C8.54665 2 10.2966 2.995 10.9091 4.36H13.085C13.7033 2.995 15.4533 2 17.25 2C19.5775 2 21.3333 3.505 21.3333 5.5C21.3333 8.39 17.67 11.24 12.1225 15.555Z" fill="white"/>
</svg>
