<svg width="88" height="52" viewBox="0 0 88 52" fill="none" xmlns="http://www.w3.org/2000/svg">
<rect width="88" height="52" rx="17" fill="black"/>
<rect x="0.5" y="0.5" width="83" height="47" rx="16.5" fill="white" stroke="black"/>
<rect x="64" y="32" width="8" height="8" rx="3" fill="black"/>
<g filter="url(#filter0_d_138546_21)">
<rect x="77" y="9" width="8" height="8" rx="3" transform="rotate(90 77 9)" fill="black"/>
</g>
<g filter="url(#filter1_d_138546_21)">
<rect x="59" y="20" width="16" height="8" rx="3" fill="black"/>
<rect x="59.5" y="20.5" width="15" height="7" rx="2.5" stroke="white"/>
</g>
<rect x="48" y="20" width="8" height="8" rx="3" fill="black"/>
<rect x="36" y="20" width="8" height="8" rx="3" fill="black"/>
<rect x="45" y="9" width="8" height="8" rx="3" fill="black"/>
<rect x="57" y="9" width="8" height="8" rx="3" fill="black"/>
<rect x="33" y="9" width="8" height="8" rx="3" fill="black"/>
<rect x="21" y="9" width="8" height="8" rx="3" fill="black"/>
<rect x="24" y="20" width="8" height="8" rx="3" fill="#020202"/>
<rect x="54" y="32" width="8" height="8" rx="3" fill="black"/>
<rect x="19" y="32" width="8" height="8" rx="3" fill="black"/>
<rect x="9" y="32" width="8" height="8" rx="3" fill="black"/>
<g filter="url(#filter2_d_138546_21)">
<rect x="29" y="32" width="23" height="9" rx="3" fill="black"/>
<rect x="29.5" y="32.5" width="22" height="8" rx="2.5" stroke="white"/>
</g>
<rect x="12" y="20" width="8" height="8" rx="3" fill="#070707"/>
<rect x="9" y="9" width="8" height="8" rx="3" fill="black"/>
<defs>
<filter id="filter0_d_138546_21" x="65" y="9" width="16" height="16" filterUnits="userSpaceOnUse" color-interpolation-filters="sRGB">
<feFlood flood-opacity="0" result="BackgroundImageFix"/>
<feColorMatrix in="SourceAlpha" type="matrix" values="0 0 0 0 0 0 0 0 0 0 0 0 0 0 0 0 0 0 127 0" result="hardAlpha"/>
<feOffset dy="4"/>
<feGaussianBlur stdDeviation="2"/>
<feComposite in2="hardAlpha" operator="out"/>
<feColorMatrix type="matrix" values="0 0 0 0 0 0 0 0 0 0 0 0 0 0 0 0 0 0 0.25 0"/>
<feBlend mode="normal" in2="BackgroundImageFix" result="effect1_dropShadow_138546_21"/>
<feBlend mode="normal" in="SourceGraphic" in2="effect1_dropShadow_138546_21" result="shape"/>
</filter>
<filter id="filter1_d_138546_21" x="55" y="20" width="24" height="16" filterUnits="userSpaceOnUse" color-interpolation-filters="sRGB">
<feFlood flood-opacity="0" result="BackgroundImageFix"/>
<feColorMatrix in="SourceAlpha" type="matrix" values="0 0 0 0 0 0 0 0 0 0 0 0 0 0 0 0 0 0 127 0" result="hardAlpha"/>
<feOffset dy="4"/>
<feGaussianBlur stdDeviation="2"/>
<feComposite in2="hardAlpha" operator="out"/>
<feColorMatrix type="matrix" values="0 0 0 0 0 0 0 0 0 0 0 0 0 0 0 0 0 0 0.25 0"/>
<feBlend mode="normal" in2="BackgroundImageFix" result="effect1_dropShadow_138546_21"/>
<feBlend mode="normal" in="SourceGraphic" in2="effect1_dropShadow_138546_21" result="shape"/>
</filter>
<filter id="filter2_d_138546_21" x="25" y="32" width="31" height="17" filterUnits="userSpaceOnUse" color-interpolation-filters="sRGB">
<feFlood flood-opacity="0" result="BackgroundImageFix"/>
<feColorMatrix in="SourceAlpha" type="matrix" values="0 0 0 0 0 0 0 0 0 0 0 0 0 0 0 0 0 0 127 0" result="hardAlpha"/>
<feOffset dy="4"/>
<feGaussianBlur stdDeviation="2"/>
<feComposite in2="hardAlpha" operator="out"/>
<feColorMatrix type="matrix" values="0 0 0 0 0 0 0 0 0 0 0 0 0 0 0 0 0 0 0.25 0"/>
<feBlend mode="normal" in2="BackgroundImageFix" result="effect1_dropShadow_138546_21"/>
<feBlend mode="normal" in="SourceGraphic" in2="effect1_dropShadow_138546_21" result="shape"/>
</filter>
</defs>
</svg>
