<svg width="20" height="21" viewBox="0 0 20 21" fill="none" xmlns="http://www.w3.org/2000/svg">
<path d="M6.50002 5C6.50002 3.34315 8.06702 2 10 2C11.933 2 13.5 3.34315 13.5 5C13.5 6.65685 11.933 8 10 8C8.06702 8 6.50002 6.65685 6.50002 5ZM10 0C6.77836 0 4.16669 2.23858 4.16669 5C4.16669 7.76142 6.77836 10 10 10C13.2217 10 15.8334 7.76142 15.8334 5C15.8334 2.23858 13.2217 0 10 0ZM6.50002 12C3.27836 12 0.666687 14.2386 0.666687 17V20C0.666687 20.5523 1.18902 21 1.83335 21C2.47769 21 3.00002 20.5523 3.00002 20V17C3.00002 15.3431 4.56702 14 6.50002 14H13.5C15.433 14 17 15.3431 17 17V20C17 20.5523 17.5224 21 18.1667 21C18.811 21 19.3334 20.5523 19.3334 20V17C19.3334 14.2386 16.7217 12 13.5 12H6.50002Z" fill="white"/>
</svg>
