<svg width="10" height="10" viewBox="0 0 10 10" fill="none" xmlns="http://www.w3.org/2000/svg">
<path fill-rule="evenodd" clip-rule="evenodd" d="M4.46431 0.714289C2.39322 0.714289 0.714289 2.39322 0.714289 4.46431C0.714289 6.53539 2.39322 8.21432 4.46431 8.21432C5.49895 8.21432 6.43503 7.79575 7.11396 7.11789C7.79432 6.4386 8.21432 5.50074 8.21432 4.46431C8.21432 2.39322 6.53539 0.714289 4.46431 0.714289ZM0 4.46431C0 1.99858 1.99858 0 4.46431 0C6.93003 0 8.92861 1.99858 8.92861 4.46431C8.92861 5.56931 8.52682 6.5811 7.86182 7.36039L9.89504 9.39004C10.0347 9.52933 10.035 9.75576 9.89576 9.89504C9.75647 10.0347 9.53004 10.035 9.39076 9.89576L7.35647 7.8654C6.57754 8.52826 5.56752 8.92861 4.46431 8.92861C1.99858 8.92861 0 6.93003 0 4.46431Z" fill="white"/>
</svg>
